# xmcd
#
# Track frame offsets:
#	150
#	20116
#	31783
#	49907
#	68068
#	82559
#	94403
#	109601
#	119134
#	133733
#	152651
#	171600
#	188765
#	203625
#	222635
#
# Disc length: 3097 seconds
#
# Revision: 1
# Processed by: cddbd v1.5.2PL0 Copyright (c) Steve Scherf et al.
# Submitted via: EasyCDDAExtractor 11.0.2.1
#
DISCID=d70c170f
DTITLE=who's news - country treffers, south african_vol.1
DYEAR=1900
DGENRE=
TTITLE0=all you ever do is bring me down
TTITLE1=little bitty
TTITLE2=who's bed have your boots been under
TTITLE3=amazed
TTITLE4=summertime blues
TTITLE5=jolene
TTITLE6=country road (dance mix)
TTITLE7=tennessee waltz
TTITLE8=good hearted woman
TTITLE9=I believe in you
TTITLE10=don't be stupid
TTITLE11=hard to be humble
TTITLE12=my maria
TTITLE13=sunday morning coming down
TTITLE14=from a jack to a king
EXTD=
EXTT0=
EXTT1=
EXTT2=
EXTT3=
EXTT4=
EXTT5=
EXTT6=
EXTT7=
EXTT8=
EXTT9=
EXTT10=
EXTT11=
EXTT12=
EXTT13=
EXTT14=
PLAYORDER=
